<?xml version="1.0" encoding="UTF-8" standalone="no"?>
<!-- Created with Inkscape (http://www.inkscape.org/) -->

<svg
   xmlns:dc="http://purl.org/dc/elements/1.1/"
   xmlns:cc="http://creativecommons.org/ns#"
   xmlns:rdf="http://www.w3.org/1999/02/22-rdf-syntax-ns#"
   xmlns:svg="http://www.w3.org/2000/svg"
   xmlns="http://www.w3.org/2000/svg"
   xmlns:xlink="http://www.w3.org/1999/xlink"
   xmlns:sodipodi="http://sodipodi.sourceforge.net/DTD/sodipodi-0.dtd"
   xmlns:inkscape="http://www.inkscape.org/namespaces/inkscape"
   width="210mm"
   height="297mm"
   viewBox="0 0 210 297"
   version="1.1"
   id="svg5117"
   inkscape:version="0.92.3 (2405546, 2018-03-11)"
   sodipodi:docname="Logo.svg">
  <defs
     id="defs5111">
    <linearGradient
       inkscape:collect="always"
       id="linearGradient5753">
      <stop
         style="stop-color:#b3b3b3;stop-opacity:1;"
         offset="0"
         id="stop5749" />
      <stop
         style="stop-color:#b3b3b3;stop-opacity:0;"
         offset="1"
         id="stop5751" />
    </linearGradient>
    <linearGradient
       inkscape:collect="always"
       id="linearGradient5745">
      <stop
         style="stop-color:#b3b3b3;stop-opacity:1;"
         offset="0"
         id="stop5741" />
      <stop
         style="stop-color:#b3b3b3;stop-opacity:0;"
         offset="1"
         id="stop5743" />
    </linearGradient>
    <linearGradient
       inkscape:collect="always"
       id="linearGradient5721">
      <stop
         style="stop-color:#008080;stop-opacity:1;"
         offset="0"
         id="stop5717" />
      <stop
         style="stop-color:#67c9c9;stop-opacity:1"
         offset="1"
         id="stop5719" />
    </linearGradient>
    <linearGradient
       inkscape:collect="always"
       id="linearGradient5711">
      <stop
         id="stop5709"
         offset="0"
         style="stop-color:#ffa0a0;stop-opacity:1" />
      <stop
         id="stop5707"
         offset="1"
         style="stop-color:#ff8080;stop-opacity:1;" />
    </linearGradient>
    <linearGradient
       inkscape:collect="always"
       xlink:href="#linearGradient5711"
       id="linearGradient5713"
       x1="59.783104"
       y1="98.370407"
       x2="96.221741"
       y2="98.370407"
       gradientUnits="userSpaceOnUse"
       gradientTransform="translate(0.06315,-0.09805)" />
    <linearGradient
       inkscape:collect="always"
       xlink:href="#linearGradient5721"
       id="linearGradient5723"
       x1="43.315838"
       y1="171.49351"
       x2="117.70673"
       y2="171.49351"
       gradientUnits="userSpaceOnUse" />
    <linearGradient
       inkscape:collect="always"
       xlink:href="#linearGradient5745"
       id="linearGradient5747"
       x1="43.315837"
       y1="157.86275"
       x2="72.805466"
       y2="157.86275"
       gradientUnits="userSpaceOnUse" />
    <linearGradient
       inkscape:collect="always"
       xlink:href="#linearGradient5753"
       id="linearGradient5755"
       x1="104.74753"
       y1="111.9031"
       x2="134.23718"
       y2="111.9031"
       gradientUnits="userSpaceOnUse" />
    <linearGradient
       inkscape:collect="always"
       xlink:href="#linearGradient5753"
       id="linearGradient5789"
       gradientUnits="userSpaceOnUse"
       x1="104.74753"
       y1="111.9031"
       x2="134.23718"
       y2="111.9031" />
    <linearGradient
       inkscape:collect="always"
       xlink:href="#linearGradient5711"
       id="linearGradient5791"
       gradientUnits="userSpaceOnUse"
       gradientTransform="translate(0.06315,-0.09805)"
       x1="59.783104"
       y1="98.370407"
       x2="96.221741"
       y2="98.370407" />
    <linearGradient
       inkscape:collect="always"
       xlink:href="#linearGradient5745"
       id="linearGradient5793"
       gradientUnits="userSpaceOnUse"
       x1="43.315837"
       y1="157.86275"
       x2="72.805466"
       y2="157.86275" />
    <linearGradient
       inkscape:collect="always"
       xlink:href="#linearGradient5721"
       id="linearGradient5795"
       gradientUnits="userSpaceOnUse"
       x1="43.315838"
       y1="171.49351"
       x2="117.70673"
       y2="171.49351" />
  </defs>
  <sodipodi:namedview
     id="base"
     pagecolor="#ffffff"
     bordercolor="#666666"
     borderopacity="1.0"
     inkscape:pageopacity="0.0"
     inkscape:pageshadow="2"
     inkscape:zoom="0.5"
     inkscape:cx="864.68036"
     inkscape:cy="543.76149"
     inkscape:document-units="mm"
     inkscape:current-layer="layer1"
     showgrid="false"
     showguides="true"
     inkscape:guide-bbox="true"
     inkscape:window-width="1366"
     inkscape:window-height="705"
     inkscape:window-x="1672"
     inkscape:window-y="743"
     inkscape:window-maximized="1"
     inkscape:object-nodes="false" />
  <metadata
     id="metadata5114">
    <rdf:RDF>
      <cc:Work
         rdf:about="">
        <dc:format>image/svg+xml</dc:format>
        <dc:type
           rdf:resource="http://purl.org/dc/dcmitype/StillImage" />
        <dc:title></dc:title>
      </cc:Work>
    </rdf:RDF>
  </metadata>
  <g
     inkscape:label="Layer 1"
     inkscape:groupmode="layer"
     id="layer1">
    <g
       id="g5765"
       transform="translate(16.223486,-49.06131)"
       inkscape:export-xdpi="300"
       inkscape:export-ydpi="300">
      <path
         style="fill:#cccccc;stroke:none;stroke-width:0.26458332px;stroke-linecap:butt;stroke-linejoin:miter;stroke-opacity:1"
         d="m 116.7572,117.91667 h 17.47998 v 5.87994 21.38158 c 0,0 0.27803,5.61264 -4.8001,5.61264 H 105.6447 v 12.02713 h 28.86512 c 6.13466,0 10.42352,-4.81086 10.42352,-12.02713 v -32.87416 -12.02713 h -28.33059 z"
         id="path5699"
         inkscape:connector-curvature="0"
         sodipodi:nodetypes="ccccscccscccc" />
      <path
         style="fill:url(#linearGradient5755);fill-opacity:1;stroke:none;stroke-width:0.26458332px;stroke-linecap:butt;stroke-linejoin:miter;stroke-opacity:1"
         d="m 134.23718,117.91667 c 0,0 -12.41677,-2.85181 -14.02317,-12.02713 h -15.46648 v 12.02713 z"
         id="path5739"
         inkscape:connector-curvature="0"
         sodipodi:nodetypes="ccccc" />
      <path
         sodipodi:nodetypes="cccsccsccccc"
         inkscape:connector-curvature="0"
         id="path5691"
         d="M 71.908328,106.94792 V 89.324202 h 27.226559 c 0,0 5.612643,-0.278027 5.612643,4.800103 v 23.792365 h 29.48963 c -5.60366,-0.75488 -17.4625,-2.6261 -17.4625,-12.08168 V 89.051559 c 0,-6.134656 -4.81086,-10.42351 -12.02713,-10.42351 H 59.846255 v 28.330571 z"
         style="fill:url(#linearGradient5713);fill-opacity:1;stroke:none;stroke-width:0.26458332px;stroke-linecap:butt;stroke-linejoin:miter;stroke-opacity:1" />
      <path
         style="fill:#cccccc;stroke:none;stroke-width:0.26458332px;stroke-linecap:butt;stroke-linejoin:miter;stroke-opacity:1"
         d="m 60.795828,151.84919 h -17.47998 v -5.87994 -21.38157 c 0,0 -0.27803,-5.61264 4.8001,-5.61264 h 23.79238 V 106.94792 H 43.043209 c -6.13466,0 -10.42352,4.81086 -10.42352,12.02712 v 32.87415 12.02713 h 28.330589 z"
         id="path5703"
         inkscape:connector-curvature="0"
         sodipodi:nodetypes="ccccscccscccc" />
      <path
         sodipodi:nodetypes="ccccc"
         inkscape:connector-curvature="0"
         id="path5737"
         d="m 43.315837,151.84919 c 0,0 12.416753,2.85181 14.023152,12.02713 h 15.466477 v -12.02713 z"
         style="fill:url(#linearGradient5747);fill-opacity:1;stroke:none;stroke-width:0.26458332px;stroke-linecap:butt;stroke-linejoin:miter;stroke-opacity:1" />
      <path
         style="fill:url(#linearGradient5723);fill-opacity:1;stroke:none;stroke-width:0.26458332px;stroke-linecap:butt;stroke-linejoin:miter;stroke-opacity:1"
         d="m 105.6447,162.81796 v 17.62372 c -9.075529,0 -18.151057,0 -27.226586,0 0,0 -5.612646,0.27802 -5.612646,-4.80011 v -23.79238 h -29.48963 c 5.60366,0.75489 17.4625,2.62611 17.4625,12.08169 v 16.78344 c 0,6.13466 4.81086,10.42351 12.02713,10.42351 14.967087,0 29.934172,0 44.901262,0 v -28.33058 z"
         id="path5705"
         inkscape:connector-curvature="0"
         sodipodi:nodetypes="cccsccsccccc" />
    </g>
    <text
       xml:space="preserve"
       style="font-style:normal;font-variant:normal;font-weight:normal;font-stretch:normal;font-size:26.60882187px;line-height:1.25;font-family:Cornerstone;-inkscape-font-specification:'Cornerstone, Normal';font-variant-ligatures:normal;font-variant-caps:normal;font-variant-numeric:normal;font-feature-settings:normal;text-align:start;letter-spacing:0px;word-spacing:0px;writing-mode:lr-tb;text-anchor:start;fill:#333333;fill-opacity:1;stroke:none;stroke-width:0.26458335"
       x="48.508221"
       y="176.83609"
       id="text5769"
       inkscape:export-xdpi="300"
       inkscape:export-ydpi="300"><tspan
         sodipodi:role="line"
         id="tspan5767"
         x="48.508221"
         y="176.83609"
         style="font-style:normal;font-variant:normal;font-weight:normal;font-stretch:normal;font-size:26.60882187px;font-family:Cornerstone;-inkscape-font-specification:'Cornerstone, Normal';font-variant-ligatures:normal;font-variant-caps:normal;font-variant-numeric:normal;font-feature-settings:normal;text-align:start;writing-mode:lr-tb;text-anchor:start;fill:#333333;stroke-width:0.26458335">Lynsight</tspan></text>
    <g
       id="g5806"
       transform="translate(-27.240122,-1.4363096)"
       inkscape:export-xdpi="300"
       inkscape:export-ydpi="300">
      <text
         xml:space="preserve"
         style="font-style:normal;font-variant:normal;font-weight:normal;font-stretch:normal;font-size:37.63731766px;line-height:1.25;font-family:Cornerstone;-inkscape-font-specification:'Cornerstone, Normal';font-variant-ligatures:normal;font-variant-caps:normal;font-variant-numeric:normal;font-feature-settings:normal;text-align:start;letter-spacing:0px;word-spacing:0px;writing-mode:lr-tb;text-anchor:start;fill:#333333;fill-opacity:1;stroke:none;stroke-width:0.26458335"
         x="71.367477"
         y="267.47476"
         id="text5773"><tspan
           sodipodi:role="line"
           id="tspan5771"
           x="71.367477"
           y="267.47476"
           style="font-style:normal;font-variant:normal;font-weight:normal;font-stretch:normal;font-size:37.63731766px;font-family:Cornerstone;-inkscape-font-specification:'Cornerstone, Normal';font-variant-ligatures:normal;font-variant-caps:normal;font-variant-numeric:normal;font-feature-settings:normal;text-align:start;writing-mode:lr-tb;text-anchor:start;fill:#333333;stroke-width:0.26458335">Lynsight</tspan></text>
      <g
         style="stroke-width:4.15362024"
         id="g5787"
         transform="matrix(0.24075384,0,0,0.24075384,25.447876,221.45689)">
        <path
           style="fill:#cccccc;stroke:none;stroke-width:1.09897864px;stroke-linecap:butt;stroke-linejoin:miter;stroke-opacity:1"
           d="m 116.7572,117.91667 h 17.47998 v 5.87994 21.38158 c 0,0 0.27803,5.61264 -4.8001,5.61264 H 105.6447 v 12.02713 h 28.86512 c 6.13466,0 10.42352,-4.81086 10.42352,-12.02713 v -32.87416 -12.02713 h -28.33059 z"
           id="path5775"
           inkscape:connector-curvature="0"
           sodipodi:nodetypes="ccccscccscccc" />
        <path
           style="fill:url(#linearGradient5789);fill-opacity:1;stroke:none;stroke-width:1.09897864px;stroke-linecap:butt;stroke-linejoin:miter;stroke-opacity:1"
           d="m 134.23718,117.91667 c 0,0 -12.41677,-2.85181 -14.02317,-12.02713 h -15.46648 v 12.02713 z"
           id="path5777"
           inkscape:connector-curvature="0"
           sodipodi:nodetypes="ccccc" />
        <path
           sodipodi:nodetypes="cccsccsccccc"
           inkscape:connector-curvature="0"
           id="path5779"
           d="M 71.908328,106.94792 V 89.324202 h 27.226559 c 0,0 5.612643,-0.278027 5.612643,4.800103 v 23.792365 h 29.48963 c -5.60366,-0.75488 -17.4625,-2.6261 -17.4625,-12.08168 V 89.051559 c 0,-6.134656 -4.81086,-10.42351 -12.02713,-10.42351 H 59.846255 v 28.330571 z"
           style="fill:url(#linearGradient5791);fill-opacity:1;stroke:none;stroke-width:1.09897864px;stroke-linecap:butt;stroke-linejoin:miter;stroke-opacity:1" />
        <path
           style="fill:#cccccc;stroke:none;stroke-width:1.09897864px;stroke-linecap:butt;stroke-linejoin:miter;stroke-opacity:1"
           d="m 60.795828,151.84919 h -17.47998 v -5.87994 -21.38157 c 0,0 -0.27803,-5.61264 4.8001,-5.61264 h 23.79238 V 106.94792 H 43.043209 c -6.13466,0 -10.42352,4.81086 -10.42352,12.02712 v 32.87415 12.02713 h 28.330589 z"
           id="path5781"
           inkscape:connector-curvature="0"
           sodipodi:nodetypes="ccccscccscccc" />
        <path
           sodipodi:nodetypes="ccccc"
           inkscape:connector-curvature="0"
           id="path5783"
           d="m 43.315837,151.84919 c 0,0 12.416753,2.85181 14.023152,12.02713 h 15.466477 v -12.02713 z"
           style="fill:url(#linearGradient5793);fill-opacity:1;stroke:none;stroke-width:1.09897864px;stroke-linecap:butt;stroke-linejoin:miter;stroke-opacity:1" />
        <path
           style="fill:url(#linearGradient5795);fill-opacity:1;stroke:none;stroke-width:1.09897864px;stroke-linecap:butt;stroke-linejoin:miter;stroke-opacity:1"
           d="m 105.6447,162.81796 v 17.62372 c -9.075529,0 -18.151057,0 -27.226586,0 0,0 -5.612646,0.27802 -5.612646,-4.80011 v -23.79238 h -29.48963 c 5.60366,0.75489 17.4625,2.62611 17.4625,12.08169 v 16.78344 c 0,6.13466 4.81086,10.42351 12.02713,10.42351 14.967087,0 29.934172,0 44.901262,0 v -28.33058 z"
           id="path5785"
           inkscape:connector-curvature="0"
           sodipodi:nodetypes="cccsccsccccc" />
      </g>
    </g>
    <path
       style="fill:#ffffff;stroke-width:1"
       d="m -121.83308,101.4594 c -2.45815,-0.15228 -4.89391,-0.43071 -6.51797,-0.74508 -3.61242,-0.69925 -6.234,-1.394486 -8.11119,-2.151056 -0.24568,-0.09902 -0.89897,-0.348395 -1.45175,-0.554163 -6.98781,-2.60119 -13.90521,-7.448886 -18.62218,-13.050393 -0.88749,-1.05392 -1.85487,-2.26799 -2.14973,-2.697929 -0.29486,-0.429938 -0.60579,-0.831961 -0.69097,-0.893381 -0.0852,-0.06145 -0.64563,-0.915725 -1.24548,-1.898442 -1.4319,-2.345879 -2.57401,-4.703728 -4.11104,-8.487147 -1.08016,-2.658795 -2.05833,-6.466221 -2.63948,-10.273911 -0.13124,-0.859885 -0.34082,-2.224939 -0.46573,-3.033467 -0.4368,-2.827462 -0.26395,-7.243608 0.4626,-11.819038 0.39742,-2.50276 1.05938,-5.866878 1.31843,-6.700378 0.0954,-0.3071 0.30018,-1.010639 0.45498,-1.563421 1.87968,-6.712322 5.00836,-12.933417 9.16226,-18.218308 3.12732,-3.978801 8.27539,-8.476561 12.40178,-10.835157 2.95537,-1.6892575 8.18852,-3.9494132 10.81483,-4.6708382 0.55277,-0.1518442 1.25632,-0.354375 1.56342,-0.4500678 0.9937,-0.3096406 4.56647,-0.9322106 7.65872,-1.3345641 2.26186,-0.2943068 8.89146,-0.2912232 10.94764,0.00506 0.88354,0.127327 2.30998,0.3332563 3.16987,0.4576221 3.12391,0.4518127 5.00413,0.8942208 8.065,1.8976558 11.165332,3.6603039 19.553262,9.7969302 25.508931,18.6623922 1.887258,2.809322 3.90863,7.138318 4.730514,10.130928 0.864853,3.14907 1.145081,4.639145 1.556964,8.278924 0.305902,2.703218 0.282917,4.39421 -0.101486,7.466962 -0.776583,6.207668 -1.26518,8.268287 -3.203953,13.512427 -0.945025,2.556181 -0.988853,2.660061 -2.214513,5.248631 -0.965962,2.040097 -1.35644,2.592065 -3.002017,4.243578 -2.239615,2.24768 -4.693389,4.151609 -6.548047,5.080739 -2.305607,1.155048 -2.849606,1.349581 -4.913611,1.757107 -3.357208,0.662871 -6.018146,0.283843 -9.640943,-1.373258 -3.337039,-1.526387 -7.633879,-5.495838 -7.675469,-7.090642 -0.004,-0.149818 -0.14916,-0.459964 -0.32279,-0.689216 -0.29892,-0.394671 -0.39052,-0.353139 -1.72383,0.781709 -0.77448,0.659199 -1.6854,1.474927 -2.02428,1.812744 -0.33888,0.337809 -0.66734,0.614198 -0.72991,0.614198 -0.0626,0 -0.74011,0.377239 -1.50564,0.838309 -5.80436,3.495913 -11.45845,4.875934 -17.17335,4.191588 -5.45938,-0.653746 -9.63796,-2.851909 -12.76066,-6.712779 -2.89111,-3.574561 -4.36183,-9.205116 -3.75233,-14.365543 0.15445,-1.307685 0.36717,-2.729381 0.47272,-3.159328 0.10556,-0.429938 0.30991,-1.284236 0.45411,-1.898433 0.37951,-1.616439 0.94279,-3.503341 1.35014,-4.522761 0.11044,-0.27639 0.30131,-0.753792 0.42415,-1.060893 0.12284,-0.307101 0.31154,-0.784503 0.41935,-1.060893 2.01585,-5.16841 6.75916,-11.882671 10.81677,-15.311363 4.29477,-3.629108 8.53271,-5.819365 13.10859,-6.774788 2.35854,-0.492455 7.73972,-0.376345 10.05056,0.216863 4.50013,1.155205 7.6159,2.963259 9.86743,5.725999 1.119082,1.373155 2.59644,4.20449 3.033453,5.81354 1.142462,4.206457 0.92453,10.505576 -0.622023,17.979348 -0.139807,0.675618 -0.34268,1.781182 -0.45084,2.456808 -0.365015,2.280163 -0.467224,2.790371 -0.648765,3.238509 -0.451017,1.113347 -0.573434,2.721877 -0.31446,4.131907 0.283235,1.542121 0.584054,2.730673 0.876177,3.461861 0.194778,0.487526 1.632597,1.898442 1.934639,1.898442 0.103154,0 0.455913,0.175826 0.783896,0.390736 2.198213,1.440317 4.422593,1.20611 7.328649,-0.771656 2.040623,-1.388782 3.591851,-3.17058 4.484275,-5.150803 1.020805,-2.265087 1.080376,-2.409047 1.592646,-3.848807 2.559828,-7.194505 3.275139,-14.175475 2.02535,-19.766118 -0.728234,-3.257596 -1.080465,-4.312039 -2.275515,-6.81205 -1.652958,-3.457941 -3.104904,-5.536619 -5.788202,-8.286686 -4.587436,-4.701588 -11.157182,-8.55406 -17.5273,-10.277936 -0.39922,-0.10804 -1.10277,-0.29959 -1.56342,-0.425668 -6.21356,-1.700616 -14.78252,-1.775415 -21.16203,-0.184726 -12.20925,3.044303 -21.45775,11.230011 -25.95055,22.968436 -0.30633,0.800364 -0.63627,1.65622 -0.7332,1.9019 -0.20539,0.52057 -0.98601,3.173368 -1.31446,4.466918 -0.54995,2.165882 -0.67464,2.864421 -1.36331,7.636785 -0.86151,5.970195 0.84368,14.9297 4.06547,21.361041 1.98328,3.959018 3.91962,6.618521 7.06828,9.708064 5.80524,5.696237 12.87447,9.021828 22.38542,10.530816 2.15385,0.341726 10.61235,0.281902 13.15167,-0.09302 2.98871,-0.441267 3.97539,-0.658405 8.59882,-1.892355 0.36852,-0.09836 1.27307,-0.400782 2.01011,-0.672047 0.737039,-0.271274 1.591336,-0.57178 1.898435,-0.667801 1.250968,-0.39115 5.732012,-2.545215 7.482091,-3.596695 0.614202,-0.369025 1.267489,-0.73675 1.451749,-0.81718 0.551997,-0.240935 4.839654,-3.144345 5.630656,-3.81283 1.069128,-0.903527 2.738137,-1.614413 3.790306,-1.614413 2.705315,0 4.873178,2.185847 4.873178,4.913608 0,2.109257 -0.860606,3.316195 -3.907169,5.47952 -13.077505,9.286178 -27.739856,13.729244 -42.325436,12.825714 z m -2.23347,-33.735203 c 3.66618,-1.274351 5.20488,-2.140542 8.02174,-4.515696 2.43365,-2.052034 5.84257,-5.467948 6.677,-6.690679 0.35539,-0.520785 0.71576,-1.248402 0.80083,-1.616921 0.085,-0.368518 0.24574,-1.021808 0.35708,-1.451747 1.51489,-5.84993 2.22248,-12.987451 1.53628,-15.496628 -0.5373,-1.964748 -1.51331,-3.34214 -2.86186,-4.038834 -1.25822,-0.650028 -3.54434,-1.246545 -5.24935,-1.369715 -4.79025,-0.34605 -8.94266,1.516587 -13.43154,6.024968 -2.58263,2.593841 -4.42685,5.226928 -6.12024,8.738196 -1.43262,2.970555 -1.42863,2.960644 -1.9802,4.913609 -1.2372,4.380625 -1.54179,6.714771 -1.15847,8.877412 0.68791,3.880952 2.61612,5.92614 6.48501,6.878442 1.06391,0.26187 5.95743,0.08349 6.92372,-0.252407 z"
       id="path5830"
       inkscape:connector-curvature="0"
       inkscape:export-xdpi="300"
       inkscape:export-ydpi="300" />
    <path
       style="fill:#ffffff;stroke-width:1"
       d="m -123.60252,253.55537 c -0.0378,-0.0378 -0.38144,-0.12382 -0.76366,-0.19116 -1.02719,-0.18096 -1.68844,-0.58082 -2.81747,-1.7037 -1.13397,-1.12778 -1.79304,-2.37738 -1.6551,-3.13804 0.057,-0.31433 0.0101,-0.45576 -0.12358,-0.37311 -0.1455,0.0899 -0.21536,-1.18827 -0.21536,-3.94041 0,-2.24045 -0.0703,-4.0807 -0.15621,-4.08947 -0.0859,-0.009 -0.34364,-0.059 -0.57273,-0.11153 -0.2291,-0.0526 -0.62734,-0.1157 -0.88499,-0.14026 -0.25765,-0.0246 -0.46853,-0.10166 -0.4686,-0.17131 -9e-5,-0.0697 -0.21102,-0.11832 -0.46876,-0.10817 -0.80111,0.0316 -2.23889,-0.31183 -2.23889,-0.53472 0,-0.11674 -0.13234,-0.16146 -0.2941,-0.0994 -0.42454,0.16291 -2.85988,-0.59078 -4.33703,-1.3422 -0.19891,-0.10119 -0.50903,-0.18398 -0.68917,-0.18398 -0.19703,0 -0.26752,-0.0971 -0.17692,-0.24366 0.0988,-0.15986 0.0404,-0.20136 -0.1699,-0.12068 -0.3229,0.12391 -1.64481,-0.45621 -3.18427,-1.39741 -0.45819,-0.28013 -0.97365,-0.57855 -1.14548,-0.66314 -0.60311,-0.29697 -1.85938,-1.26954 -1.76359,-1.36533 0.0533,-0.0532 -0.16077,-0.22973 -0.47561,-0.39218 -0.75648,-0.39032 -3.17577,-2.96754 -3.17577,-3.38308 0,-0.071 -0.24011,-0.63618 -0.53358,-1.256 -0.42828,-0.90454 -0.51675,-1.35629 -0.44831,-2.28909 0.0469,-0.63918 0.19658,-1.29625 0.33261,-1.46018 0.13605,-0.16392 0.22919,-0.3782 0.20699,-0.47616 -0.1413,-0.6234 1.00593,-1.9547 2.23133,-2.58936 0.93842,-0.48602 2.79286,-0.78409 2.79286,-0.44889 0,0.11978 0.17687,0.17153 0.39303,0.11499 0.21617,-0.0565 0.456,-7.8e-4 0.53296,0.12364 0.077,0.12453 0.29967,0.22641 0.4949,0.22641 0.19522,0 0.84204,0.32802 1.43737,0.72894 0.59532,0.40092 1.14402,0.72894 1.21932,0.72894 0.0753,0 0.45716,0.28116 0.84854,0.6248 0.39139,0.34365 0.8264,0.62481 0.96667,0.62481 0.14028,0 0.37212,0.18744 0.51519,0.41653 0.14307,0.2291 0.45231,0.41654 0.68719,0.41654 0.23489,0 0.3797,0.0767 0.3218,0.17033 -0.10968,0.17747 2.50981,1.80393 2.91615,1.81065 0.12766,0.002 0.39979,0.14301 0.60474,0.31311 0.20495,0.1701 0.40821,0.27838 0.45167,0.24063 0.0435,-0.0378 0.75539,0.20689 1.58206,0.54364 2.73884,1.11566 2.32734,0.9716 3.37746,1.18237 0.4582,0.092 0.93274,0.24568 1.05456,0.34158 0.12181,0.0959 0.47327,0.12871 0.781,0.0729 0.30774,-0.0558 0.55953,-0.0197 0.55953,0.0803 0,0.1 0.4686,0.13675 1.04134,0.0817 0.68029,-0.0653 1.04135,-0.0205 1.04135,0.12951 0,0.13464 0.2368,0.19023 0.57273,0.13444 0.31501,-0.0523 1.42948,-0.13188 2.47661,-0.17681 1.04714,-0.045 1.98434,-0.12934 2.08268,-0.18759 0.0984,-0.0582 0.6928,-0.16701 1.32101,-0.24167 0.62821,-0.0746 1.23271,-0.22626 1.34333,-0.33688 0.11062,-0.11062 0.3464,-0.20171 0.52395,-0.20241 0.17755,-6.3e-4 0.59126,-0.14129 0.91936,-0.3124 0.3281,-0.17112 0.69179,-0.31113 0.8082,-0.31113 0.11641,0 0.66824,-0.32802 1.22628,-0.72893 0.55805,-0.40092 1.11108,-0.72894 1.22895,-0.72894 0.11788,0 0.2669,-0.13701 0.33117,-0.30447 0.0642,-0.16747 0.27219,-0.35477 0.46207,-0.41623 0.18987,-0.0615 0.57869,-0.46334 0.86403,-0.89306 0.28536,-0.42974 0.57103,-0.82819 0.63484,-0.88546 0.28534,-0.25609 1.03935,-1.44738 1.01303,-1.60052 -0.0161,-0.0934 -0.006,-0.24005 0.0215,-0.32596 0.0279,-0.0859 0.0742,-0.24993 0.10276,-0.36447 0.0287,-0.11455 0.0757,-0.2317 0.10469,-0.26034 0.029,-0.0286 0.0835,-0.23951 0.12122,-0.4686 0.22292,-1.3531 0.2082,-2.16122 -0.0583,-3.20322 -0.60688,-2.37247 -1.28564,-3.33136 -3.92439,-5.54405 -1.24906,-1.04739 -1.45828,-1.18741 -3.27381,-2.19121 -0.54497,-0.30131 -0.91985,-0.61994 -0.83307,-0.70806 0.0868,-0.0881 0.0172,-0.14021 -0.15463,-0.11574 -0.57897,0.0824 -0.81515,-0.003 -1.22555,-0.44357 -0.22478,-0.24128 -0.5096,-0.37633 -0.63291,-0.30011 -0.12333,0.0762 -0.22422,0.0394 -0.22422,-0.082 0,-0.12131 -0.18075,-0.22056 -0.40166,-0.22056 -0.22092,0 -0.54392,-0.14225 -0.71779,-0.31612 -0.17387,-0.17387 -0.39143,-0.30335 -0.48348,-0.28774 -0.43784,0.0742 -0.69863,-0.0435 -0.56719,-0.25623 0.0883,-0.14292 0.0318,-0.19715 -0.14391,-0.13815 -0.30047,0.10088 -3.05194,-0.95213 -3.40165,-1.30183 -0.10953,-0.10954 -0.36115,-0.19915 -0.55915,-0.19915 -0.198,0 -0.50656,-0.14656 -0.68568,-0.32568 -0.17913,-0.17912 -0.42012,-0.26731 -0.53555,-0.19597 -0.11543,0.0713 -0.20986,0.0435 -0.20986,-0.0619 0,-0.10536 -0.65585,-0.39855 -1.45745,-0.65155 -0.8016,-0.25298 -1.57563,-0.57815 -1.72007,-0.7226 -0.14445,-0.14445 -0.36807,-0.22749 -0.49693,-0.18453 -0.12887,0.043 -0.37461,-0.0622 -0.54609,-0.23368 -0.17148,-0.17148 -0.34878,-0.27479 -0.39399,-0.22958 -0.14205,0.14205 -3.88347,-1.71376 -4.37129,-2.16822 -0.25574,-0.23827 -0.56443,-0.42207 -0.68596,-0.40845 -0.53821,0.0603 -0.75691,-0.0408 -0.61641,-0.28492 0.0824,-0.14318 0.076,-0.19378 -0.0141,-0.11245 -0.21535,0.1943 -1.36072,-0.40218 -1.36072,-0.70862 0,-0.1307 -0.0628,-0.17482 -0.13958,-0.0981 -0.16304,0.16304 -1.13799,-0.42437 -1.38072,-0.83187 -0.0916,-0.1538 -0.29104,-0.27962 -0.4432,-0.27962 -0.15216,0 -0.433,-0.21087 -0.62411,-0.4686 -0.19109,-0.25773 -0.2792,-0.33283 -0.19578,-0.16688 0.1623,0.32293 -0.53496,-0.29964 -2.84689,-2.54195 -0.79797,-0.77394 -1.45246,-1.5237 -1.45445,-1.66614 -0.002,-0.14246 -0.23628,-0.47971 -0.52067,-0.74947 -0.28438,-0.26975 -0.51915,-0.64463 -0.5217,-0.83307 -0.002,-0.18844 -0.1879,-0.57692 -0.4119,-0.86328 -0.22401,-0.28637 -0.40936,-0.8308 -0.41191,-1.20984 -0.002,-0.37904 -0.0863,-0.63868 -0.18614,-0.57697 -0.0998,0.0617 -0.27237,-0.34736 -0.38342,-0.90901 -0.26677,-1.34922 -0.3114,-5.84317 -0.058,-5.84317 0.1078,0 0.13976,-0.28117 0.0711,-0.62481 -0.083,-0.41477 -0.0415,-0.6248 0.12338,-0.6248 0.15385,0 0.19785,-0.15905 0.11565,-0.41804 -0.073,-0.22992 0.0144,-0.71292 0.19423,-1.07334 0.17981,-0.36041 0.32692,-0.82835 0.32692,-1.03985 0,-0.21149 0.0992,-0.38453 0.22056,-0.38453 0.12131,0 0.16193,-0.0949 0.0903,-0.21079 -0.13195,-0.2135 1.0848,-2.54239 1.3951,-2.67026 0.0926,-0.0382 0.16847,-0.25458 0.16847,-0.48089 0,-0.22631 0.0937,-0.35355 0.20827,-0.28276 0.11454,0.0708 0.20826,0.0303 0.20826,-0.09 0,-0.24468 1.29388,-2.00219 1.88864,-2.56538 0.2117,-0.20045 0.49816,-0.36446 0.63659,-0.36446 0.13843,0 0.19367,-0.058 0.12276,-0.12893 -0.15601,-0.15601 0.3594,-0.70414 0.6621,-0.70414 0.1187,0 0.31613,-0.18745 0.43874,-0.41654 0.12261,-0.2291 0.34388,-0.41654 0.4917,-0.41654 0.14782,0 0.48888,-0.2343 0.75791,-0.52067 0.26903,-0.28637 0.61339,-0.52067 0.76525,-0.52067 0.15185,0 0.27609,-0.0937 0.27609,-0.20827 0,-0.11455 0.18279,-0.20827 0.40619,-0.20827 0.2234,0 0.48113,-0.11715 0.57274,-0.26033 0.24047,-0.37589 1.90131,-1.24407 2.12062,-1.10854 0.10205,0.0631 0.30137,-0.0249 0.44292,-0.19543 0.14155,-0.17056 0.37576,-0.31011 0.52046,-0.31011 0.1447,0 0.52482,-0.13579 0.8447,-0.30174 0.31989,-0.16597 0.65598,-0.25579 0.74687,-0.19962 0.0909,0.0562 0.42151,-0.0658 0.73471,-0.27099 0.3132,-0.20522 0.59805,-0.34625 0.63298,-0.31339 0.035,0.0328 0.43347,-0.0511 0.88563,-0.18656 l 0.8221,-0.24631 0.0749,-3.77053 c 0.0639,-3.21903 0.15696,-4.39249 0.3691,-4.65567 0.0231,-0.0286 0.0576,-0.12236 0.0767,-0.20827 0.0693,-0.3113 0.80656,-1.60001 1.06086,-1.85431 0.14333,-0.14333 0.31006,-0.21114 0.37051,-0.15069 0.0605,0.0605 0.16879,-0.0756 0.24075,-0.3023 0.0721,-0.22707 0.69297,-0.69992 1.38242,-1.05279 0.68838,-0.35232 1.18664,-0.52534 1.10724,-0.38449 -0.11096,0.19686 -0.0832,0.19963 0.11985,0.012 0.14531,-0.13424 0.40873,-0.1886 0.58539,-0.12081 0.19672,0.0755 0.26793,0.0371 0.18375,-0.0991 -0.0932,-0.15078 0.24784,-0.19888 1.05924,-0.14937 1.58467,0.0967 2.55043,0.30313 2.55043,0.54516 0,0.1083 0.0827,0.1458 0.18378,0.0833 0.1785,-0.11032 1.30763,0.64731 1.44809,0.97164 0.0384,0.0887 0.15557,0.10832 0.26033,0.0436 0.10476,-0.0648 0.19048,0.0262 0.19048,0.20217 0,0.17594 0.2354,0.47414 0.52312,0.66266 0.28771,0.18851 0.58179,0.58899 0.65352,0.88993 0.0717,0.30096 0.21896,0.65987 0.3272,0.79758 0.33753,0.42945 0.42397,1.30272 0.49045,4.95496 l 0.0644,3.53921 0.58354,0.0449 c 0.90294,0.0694 2.63883,0.50944 2.93396,0.74374 0.14596,0.11587 0.32157,0.15448 0.39026,0.0858 0.0687,-0.0687 0.46474,0.0455 0.88011,0.25382 0.41537,0.20828 0.87237,0.33704 1.01555,0.28612 0.14318,-0.0509 0.26033,0.0145 0.26033,0.14533 0,0.13086 0.0927,0.18064 0.20597,0.11063 0.21293,-0.1316 1.0522,0.19032 2.76186,1.05937 0.5441,0.27657 0.99071,0.4322 0.99247,0.34583 0.002,-0.0864 0.072,-0.0633 0.15619,0.0512 0.19562,0.26627 1.01951,0.72895 1.29802,0.72895 0.82016,0 5.059058,3.70514 5.735547,5.01333 0.72353,1.39916 1.176742,3.15166 1.015139,3.92541 -0.08566,0.41015 -0.139972,0.81602 -0.120694,0.90193 0.01928,0.0859 -0.05573,0.1562 -0.166673,0.1562 -0.110957,0 -0.158903,0.11715 -0.106565,0.26034 0.05235,0.14318 -0.325473,0.70825 -0.839603,1.25571 -0.514131,0.54746 -0.936219,0.92234 -0.937975,0.83307 -0.0016,-0.0893 -0.07793,-0.0446 -0.169254,0.0993 -0.191822,0.30213 -2.270162,0.88391 -3.157702,0.88391 -0.3313,0 -0.66123,-0.0953 -0.73317,-0.21167 -0.072,-0.11641 -0.22671,-0.1524 -0.3439,-0.08 -0.2418,0.14943 -1.83477,-0.55594 -1.83843,-0.81407 -0.002,-0.0927 -0.084,-0.11804 -0.18378,-0.0564 -0.0998,0.0616 -0.37303,-0.05 -0.60727,-0.24805 -1.18121,-0.99889 -1.39816,-1.16699 -1.39816,-1.08334 0,0.05 -0.21028,-0.0564 -0.46727,-0.23647 -0.25701,-0.18002 -0.39759,-0.40421 -0.31241,-0.49821 0.0852,-0.094 0.049,-0.11049 -0.0803,-0.0366 -0.12935,0.0738 -0.48685,-0.11739 -0.79444,-0.42497 -0.30758,-0.30759 -0.702,-0.5802 -0.87648,-0.60581 -0.17449,-0.0256 -0.48042,-0.19422 -0.67985,-0.37471 -0.19943,-0.18048 -0.42049,-0.32815 -0.49124,-0.32815 -0.0708,0 -0.68834,-0.32802 -1.37239,-0.72894 -0.68406,-0.40091 -1.42323,-0.72893 -1.6426,-0.72893 -0.21936,0 -0.46403,-0.0652 -0.54372,-0.14488 -0.0797,-0.0797 -0.25931,-0.16847 -0.39918,-0.19732 -0.13987,-0.0289 -0.5289,-0.10913 -0.86452,-0.1784 -0.33562,-0.0693 -0.7105,-0.18842 -0.83307,-0.26478 -0.24121,-0.15027 -0.35571,-0.15638 -4.38822,-0.23403 -3.15594,-0.0608 -4.21742,0.0509 -5.72744,0.60289 -0.60654,0.2217 -1.18267,0.35372 -1.2803,0.29337 -0.0976,-0.0604 -0.17752,-0.005 -0.17752,0.12315 0,0.12807 -0.0937,0.17493 -0.20827,0.10413 -0.11454,-0.0708 -0.20827,-0.0294 -0.20827,0.0918 0,0.1213 -0.14683,0.22055 -0.32629,0.22055 -0.17946,0 -0.63349,0.23431 -1.00894,0.52067 -0.37545,0.28637 -0.85342,0.52068 -1.06215,0.52068 -0.20874,0 -0.33229,0.0472 -0.27456,0.10496 0.0577,0.0577 -0.30952,0.54976 -0.8161,1.09341 -0.50658,0.54364 -1.20015,1.55077 -1.54125,2.23806 -0.53643,1.08086 -0.62625,1.50975 -0.66507,3.17608 -0.0247,1.05957 0.0281,1.92649 0.11725,1.92649 0.0892,0 0.16214,0.19139 0.16214,0.42532 0,0.23394 0.0923,0.53852 0.20513,0.67688 1.06343,1.30405 1.26287,1.62868 1.13136,1.84147 -0.0843,0.13641 -0.0619,0.18951 0.0506,0.11998 0.111,-0.0686 0.59427,0.24494 1.07394,0.69676 0.47967,0.45182 0.9712,0.82149 1.09228,0.82149 0.12107,0 0.17036,0.0805 0.10952,0.17896 -0.0609,0.0984 0.23823,0.33125 0.66459,0.51738 0.42635,0.18613 1.05635,0.52316 1.39999,0.74896 0.34364,0.2258 0.95282,0.56079 1.35374,0.74443 0.40091,0.18363 1.19755,0.55273 1.77028,0.82021 2.61646,1.22196 3.39134,1.55227 3.96564,1.69043 0.33894,0.0815 0.89742,0.29606 1.24106,0.47672 0.34365,0.18067 0.83506,0.3493 1.09205,0.37473 0.25697,0.0254 0.72557,0.18239 1.04133,0.34878 0.65112,0.34311 2.01054,0.88427 2.70886,1.07835 0.25774,0.0716 0.46861,0.22767 0.46861,0.34675 0,0.11909 0.14545,0.1607 0.32322,0.0925 0.21117,-0.081 0.27152,-0.0404 0.17409,0.11724 -0.0996,0.16114 -0.034,0.19711 0.19746,0.10829 0.19087,-0.0732 0.34657,-0.0323 0.34657,0.091 0,0.12321 0.12107,0.17755 0.26906,0.12077 0.14798,-0.0567 0.44705,0.0269 0.66461,0.18598 0.21755,0.15908 0.56507,0.28924 0.77228,0.28924 0.2072,0 0.37673,0.0733 0.37673,0.1628 0,0.0895 0.42174,0.28732 0.9372,0.43952 0.51547,0.1522 0.93721,0.3601 0.93721,0.46201 0,0.1019 0.14923,0.18528 0.33162,0.18528 0.1824,0 0.56991,0.18744 0.86116,0.41653 0.29125,0.22909 0.70435,0.41654 0.91799,0.41654 0.21365,0 0.38846,0.0937 0.38846,0.20826 0,0.11455 0.16401,0.20862 0.36446,0.20906 0.20046,4.1e-4 0.6925,0.20785 1.09341,0.46094 0.40092,0.25309 0.8847,0.55734 1.07506,0.6761 0.19038,0.11875 0.78083,0.52051 1.31212,0.89279 0.5313,0.37228 1.07064,0.67687 1.19854,0.67687 0.12789,0 0.16977,0.0627 0.0931,0.13946 -0.0767,0.0767 0.23569,0.36317 0.69422,0.63661 0.45853,0.27343 0.83369,0.58556 0.83369,0.69361 0,0.10806 0.12219,0.19647 0.27154,0.19647 0.30949,0 1.60287,1.27 1.60287,1.57389 0,0.11018 0.186186,0.3166 0.413753,0.45872 0.227558,0.14211 0.5537,0.56297 0.724749,0.93523 0.171049,0.37227 0.430031,0.86074 0.575521,1.0855 0.932394,1.4404 1.274696,2.14896 1.241872,2.57061 -0.02117,0.27223 0.05219,0.42469 0.169514,0.35218 0.116924,-0.0723 0.20688,0.10984 0.20688,0.4188 0,0.30065 0.100976,0.73532 0.224394,0.96593 0.330149,0.61689 0.458487,4.8606 0.194333,6.42619 -0.125622,0.74455 -0.244451,1.51087 -0.264059,1.70291 -0.0196,0.19205 -0.124056,0.29455 -0.232108,0.22778 -0.113492,-0.0701 -0.143924,0.0794 -0.07202,0.35419 0.07202,0.27545 -0.01149,0.68291 -0.198363,0.96817 -0.177504,0.27091 -0.269664,0.63086 -0.204802,0.7999 0.06486,0.16903 0.02834,0.36273 -0.08123,0.43043 -0.10954,0.0677 -0.199166,0.29353 -0.199166,0.50184 0,0.20831 -0.144852,0.49896 -0.321884,0.64588 -0.177031,0.14693 -0.276024,0.38665 -0.21997,0.53272 0.05604,0.14607 0.03353,0.29506 -0.05014,0.3311 -0.08363,0.036 -0.466775,0.70346 -0.851442,1.48316 -0.384668,0.77969 -1.084181,1.814 -1.554462,2.29846 -0.4703,0.48445 -1.02399,1.13936 -1.23044,1.45535 -0.20645,0.31599 -0.60476,0.66175 -0.88513,0.76834 -0.28038,0.1066 -0.50978,0.28986 -0.50978,0.40725 0,0.11738 -0.14612,0.21342 -0.3247,0.21342 -0.17858,0 -0.26677,0.0937 -0.19597,0.20826 0.0708,0.11455 -0.0141,0.20827 -0.18865,0.20827 -0.17456,0 -0.41115,0.17523 -0.52577,0.38939 -0.11462,0.21417 -0.53567,0.5447 -0.93568,0.73451 -0.40002,0.18982 -0.78462,0.43787 -0.85468,0.55122 -0.07,0.11335 -0.20479,0.15824 -0.29941,0.0998 -0.0946,-0.0585 -0.2258,0.0337 -0.29148,0.20488 -0.0657,0.17115 -0.27191,0.3112 -0.4583,0.3112 -0.33658,0 -1.36684,0.50524 -1.96514,0.96372 -0.56563,0.43342 -3.31951,1.31907 -3.6761,1.18223 -0.23544,-0.0904 -0.30024,-0.0546 -0.19874,0.1096 0.0922,0.14913 0.005,0.25632 -0.22618,0.27626 -0.33705,0.0291 -1.16703,0.12268 -1.8867,0.21258 -0.14318,0.0179 -0.26034,0.1041 -0.26034,0.19159 0,0.0875 -0.19072,0.18902 -0.42384,0.22563 -0.4062,0.0638 -0.42674,0.23132 -0.49337,4.02364 -0.0738,4.20011 -0.10471,4.51588 -0.51594,5.27229 -0.14416,0.26516 -0.29764,0.6666 -0.34106,0.89208 -0.13628,0.70761 -3.43249,3.56861 -3.43249,2.97928 0,-0.0742 -0.13578,-0.0223 -0.30173,0.11543 -0.2666,0.22126 -2.90172,0.4848 -3.07863,0.30791 z"
       id="path5858"
       inkscape:connector-curvature="0"
       inkscape:export-xdpi="300"
       inkscape:export-ydpi="300" />
    <path
       style="fill:#ffffff;stroke-width:1"
       d="m -164.26086,386.86746 c -1.86125,-0.43159 -3.61871,-1.45974 -4.72914,-2.76665 -0.24271,-0.28565 -0.50365,-0.58397 -0.57988,-0.66289 -0.2664,-0.27591 -1.02493,-1.78924 -1.29541,-2.58449 -0.15002,-0.44107 -0.32314,-1.20365 -0.38469,-1.69462 -0.15485,-1.23492 -0.1451,-7.40675 0.0129,-8.14671 0.21048,-0.98594 0.92628,-1.81875 1.92019,-2.23402 0.37248,-0.15564 0.96198,-0.17933 4.32312,-0.17371 l 3.89182,0.007 3.5e-4,-15.69516 c 0.002,-60.53241 -0.005,-58.01158 0.16019,-59.11331 0.18016,-1.197 0.37432,-1.83462 0.87149,-2.86195 1.19849,-2.47655 3.58409,-4.3075 6.32174,-4.85195 1.11081,-0.22092 1.44034,-0.22286 37.89563,-0.22186 l 36.775063,0.002 1.161964,0.2636 c 0.639077,0.14498 1.500043,0.42334 1.913253,0.61857 0.972524,0.45949 2.350065,1.50108 2.954225,2.23373 0.262088,0.31783 0.507234,0.6027 0.544767,0.63304 0.03753,0.0303 0.285995,0.45232 0.552141,0.93774 1.05296,1.92046 1.237299,3.12499 1.184337,7.73898 -0.03502,3.05183 -0.04686,3.20393 -0.288048,3.69339 -0.331694,0.67323 -0.929294,1.27538 -1.556841,1.56866 -0.492181,0.23003 -0.660683,0.23864 -5.280108,0.26961 l -4.771693,0.032 0.0011,37.50772 c 0.0011,26.81387 -0.03386,37.73149 -0.120918,38.2926 -0.515897,3.32504 -3.440884,6.41984 -6.82969,7.22617 -0.784359,0.18664 -2.719083,0.19809 -37.178532,0.22005 l -36.35111,0.0233 -1.11794,-0.25922 z m 67.476639,-3.9826 c 0,-0.0354 -0.16512,-0.27111 -0.36693,-0.52403 -0.5159,-0.64654 -0.83102,-1.22148 -1.15905,-2.11468 -0.27715,-0.75462 -0.28454,-0.84849 -0.32384,-4.1095 l -0.0403,-3.33725 -8.570249,-10e-5 c -4.71365,-7e-5 -19.86448,-3.4e-4 -33.66853,-4.2e-4 -13.80404,-2.2e-4 -25.33675,-2.2e-4 -25.62825,1.1e-4 l -0.52999,4.1e-4 0.0335,3.33725 0.0335,3.33724 0.32974,0.66193 c 0.65171,1.30829 2.065,2.42334 3.42121,2.69927 0.49547,0.10079 66.469019,0.15021 66.469019,0.0497 z m 7.020116,-0.36778 c 0.382926,-0.17919 0.759673,-0.37796 0.837225,-0.44171 0.07755,-0.0638 0.298054,-0.24156 0.490002,-0.39514 0.479686,-0.38382 1.114906,-1.37059 1.36966,-2.1277 0.207548,-0.61682 0.212693,-1.53782 0.241558,-43.21456 0.02758,-39.77564 0.04189,-42.62428 0.217668,-43.19025 0.262487,-0.84519 0.833641,-1.93557 1.325916,-2.5313 l 0.41598,-0.50339 -33.677474,-0.032 c -24.68901,-0.0235 -33.85414,0.002 -34.33941,0.0926 -0.36406,0.0685 -1.00405,0.30381 -1.42221,0.52279 -0.94918,0.49706 -1.80747,1.48556 -2.21554,2.55166 -0.27296,0.7131 -0.27851,0.78861 -0.30592,4.16341 -0.0153,1.89043 -0.003,3.42175 0.0272,3.40294 0.0303,-0.0188 0.0551,7.20447 0.0551,16.05175 0,8.84727 -0.0248,16.07061 -0.0551,16.05184 -0.0303,-0.0188 -0.0436,2.08348 -0.0295,4.67164 0.0142,2.58817 0.0265,11.07271 0.0276,18.85454 l 0.002,14.14881 h 29.62502 c 31.245379,0 30.153699,-0.0163 30.459449,0.45762 0.0529,0.0821 0.12388,1.93637 0.15769,4.12075 0.0566,3.6563 0.0793,4.01538 0.28581,4.52321 0.87727,2.15726 2.688396,3.33057 4.938357,3.19927 0.661862,-0.0386 1.041002,-0.12966 1.568986,-0.37674 z m -59.762535,-20.63107 c -0.58982,-0.58982 -0.38728,-1.47637 0.40619,-1.77804 0.17372,-0.0661 6.81537,-0.10592 17.64339,-0.10592 16.20765,0 17.39136,0.0126 17.76347,0.19012 0.53895,0.257 0.76866,0.78465 0.55952,1.28519 -0.0816,0.19528 -0.2775,0.43968 -0.43533,0.54311 -0.26737,0.17517 -1.49392,0.18802 -17.95086,0.18802 h -17.6639 z m 44.14873,-0.0675 c -0.38249,-0.43563 -0.43126,-0.80604 -0.16053,-1.21922 0.39109,-0.59688 0.39476,-0.59725 5.773589,-0.59725 4.11699,0 5.04009,0.0278 5.36007,0.16151 0.726853,0.3037 0.863271,1.31168 0.24704,1.82538 -0.24329,0.20281 -0.48967,0.21237 -5.56617,0.21587 l -5.311609,0.004 z m -43.97208,-7.4401 c -0.37548,-0.2475 -0.4804,-0.45657 -0.49138,-0.97901 -0.006,-0.27695 0.078,-0.4496 0.33488,-0.68952 l 0.34264,-0.32007 h 17.64374 c 16.43796,0 17.66335,0.0129 17.93071,0.18804 0.15783,0.10341 0.35373,0.3478 0.43533,0.5431 0.12677,0.3034 0.12391,0.41359 -0.0196,0.75727 -0.32099,0.76823 0.96366,0.71812 -18.38592,0.71731 -17.16189,-0.002 -17.46765,-0.004 -17.7903,-0.21712 z m 44.27984,0.0528 c -0.79866,-0.43409 -0.85123,-1.41364 -0.0997,-1.85758 0.27822,-0.16434 0.8542,-0.18371 5.462109,-0.18371 4.67867,0 5.18063,0.0174 5.47315,0.19024 0.654373,0.38655 0.620024,1.37073 -0.0626,1.79259 -0.34994,0.21627 -0.5279,0.22346 -5.4236,0.2192 -4.152209,-0.004 -5.113469,-0.0326 -5.349379,-0.16074 z m -44.29752,-7.68642 c -0.62132,-0.30085 -0.64879,-1.42453 -0.0436,-1.78206 0.28773,-0.16996 1.67422,-0.18437 17.93613,-0.18638 19.52311,-0.003 17.95743,-0.0635 18.32822,0.71415 0.16611,0.34834 0.1638,0.39355 -0.038,0.73903 -0.11821,0.20239 -0.33631,0.42943 -0.48469,0.5045 -0.35444,0.17939 -35.32811,0.18991 -35.69812,0.0108 z m 44.21112,-0.025 c -0.29328,-0.16255 -0.55387,-0.56843 -0.55984,-0.87199 -0.007,-0.34118 0.32491,-0.85417 0.62625,-0.96874 0.17727,-0.0674 2.26894,-0.10735 5.421349,-0.10355 4.70209,0.005 5.16075,0.0226 5.46672,0.20124 0.61406,0.35864 0.583114,1.40685 -0.0512,1.73487 -0.44079,0.22795 -10.493139,0.23549 -10.903259,0.008 z m -44.16576,-7.62998 c -0.36941,-0.20075 -0.52681,-0.47908 -0.52681,-0.93149 0,-0.46164 0.1607,-0.73558 0.5494,-0.9366 0.28342,-0.14655 2.42881,-0.16662 17.81923,-0.16662 19.4098,0 17.99761,-0.0558 18.32362,0.72443 0.13748,0.32904 0.13748,0.42855 0,0.75759 -0.32499,0.77779 1.08473,0.72253 -18.34357,0.71913 -15.26128,-0.003 -17.56005,-0.0241 -17.82187,-0.16644 z m 43.9771,-0.20336 c -0.27029,-0.27029 -0.37509,-0.47374 -0.37509,-0.72813 0,-0.25439 0.1048,-0.45783 0.37509,-0.72812 l 0.3751,-0.3751 h 5.146479 c 5.40381,0 5.50258,0.008 5.903282,0.49103 0.0797,0.096 0.144912,0.3825 0.144912,0.6366 0,0.38907 -0.05832,0.51068 -0.369424,0.7704 l -0.36942,0.30841 h -5.22792 -5.227909 z m -32.25816,-7.34745 c -6.40144,-0.0303 -11.71913,-0.0951 -11.8171,-0.14397 -0.59585,-0.29709 -0.53773,-1.54586 0.0852,-1.82966 0.19343,-0.0881 5.21351,-0.12249 17.90029,-0.12249 17.36308,0 17.63565,0.003 17.9072,0.2169 0.44306,0.34852 0.57912,0.79504 0.36717,1.20492 -0.36984,0.71521 -0.0964,0.68651 -6.75515,0.70902 -3.32672,0.0113 -11.28613,-0.004 -17.68757,-0.0347 z m 32.20314,-0.34264 c -0.46394,-0.49664 -0.40213,-1.07809 0.16499,-1.55218 0.21431,-0.17915 0.63639,-0.19396 5.527489,-0.19396 5.06349,0 5.30661,0.009 5.55001,0.21221 0.338719,0.28235 0.48014,0.80026 0.333437,1.22107 -0.228557,0.65565 -0.227157,0.6555 -5.999197,0.6555 h -5.256669 z m -43.92208,-7.44156 c -0.38044,-0.20645 -0.52681,-0.47996 -0.52681,-0.98442 0,-0.46651 0.36824,-0.87546 0.88056,-0.97794 0.17919,-0.0358 8.12852,-0.0674 17.66516,-0.0701 l 17.33935,-0.005 0.35476,0.27059 c 0.51668,0.39409 0.67231,0.83203 0.44907,1.26372 -0.37444,0.72407 0.95179,0.67558 -18.34238,0.67071 -15.24568,-0.004 -17.55811,-0.0256 -17.81971,-0.16756 z m 44.30675,0.0638 c -0.3388,-0.13689 -0.70474,-0.64857 -0.70474,-0.98543 0,-0.16035 0.0775,-0.40216 0.17217,-0.53736 0.39565,-0.56486 0.40584,-0.56579 5.926139,-0.54227 5.00478,0.0213 5.14628,0.0278 5.44388,0.25002 0.623379,0.46541 0.558378,1.42655 -0.11818,1.74759 -0.32233,0.15296 -1.02161,0.17467 -5.42814,0.16858 -2.781979,-0.004 -5.162979,-0.0494 -5.291129,-0.10113 z m -43.84067,-17.76402 v -8.71545 l 5.04723,0.002 c 4.96925,0.002 5.06383,0.005 6.1208,0.26851 2.42224,0.60293 3.69439,2.15748 3.59862,4.39751 -0.0619,1.44947 -0.6569,2.45153 -1.94457,3.27533 l -0.58208,0.37238 0.48256,0.18318 c 0.83407,0.31659 1.69107,0.96369 2.1078,1.59152 0.59205,0.89196 0.65306,1.1164 0.66102,2.43181 0.007,1.1354 -0.0146,1.25972 -0.33328,1.93063 -0.78218,1.64661 -2.42851,2.60966 -4.89366,2.86263 -0.62209,0.0638 -3.18608,0.11607 -5.69775,0.11607 h -4.56669 z m 9.3573,4.62859 c 1.03217,-0.23806 1.50899,-0.98443 1.21317,-1.89897 -0.1676,-0.51812 -0.53278,-0.82683 -1.14646,-0.96917 -0.23802,-0.0552 -1.38843,-0.10154 -2.55645,-0.10299 l -2.1237,-0.003 v 1.5445 1.54451 l 2.06853,-0.003 c 1.1377,-0.002 2.28291,-0.0522 2.54491,-0.11256 z m -0.69841,-6.55255 c 0.87742,-0.20639 1.27011,-0.62155 1.27011,-1.34284 0,-0.63688 -0.28838,-1.06095 -0.88339,-1.29902 -0.35006,-0.14006 -0.85617,-0.17804 -2.37334,-0.17804 h -1.92841 v 1.48936 1.48934 l 1.62724,-0.002 c 1.00705,-0.002 1.87901,-0.0609 2.28779,-0.15708 z m 9.10297,1.92396 v -8.71545 h 2.42512 2.42513 l 0.0295,2.67532 c 0.0163,1.47141 0.0164,5.39337 1.1e-4,8.71544 l -0.0293,6.04012 h -2.42525 -2.42524 z m 8.05351,0 v -8.71545 h 2.42708 2.42709 v 6.56417 6.56416 h 4.19223 4.19224 v 2.15128 2.15127 h -6.61932 -6.61932 z m 15.22443,0.002 v -8.71651 h 2.42709 2.42709 v 6.56416 6.56416 h 4.194619 4.19462 l -0.03,2.1237 -0.03,2.12369 -6.591739,0.0285 -6.59175,0.0285 z m 32.745858,-9.46851 -0.03534,-3.06896 -0.365452,-0.69678 c -0.201,-0.38322 -0.432382,-0.76371 -0.514177,-0.84551 -0.0818,-0.0818 -0.165573,-0.1878 -0.186159,-0.23555 -0.110519,-0.25636 -1.24595,-1.05709 -1.863492,-1.31419 -0.998941,-0.41587 -2.499481,-0.43642 -3.469399,-0.0475 -1.215244,0.48728 -2.157613,1.36108 -2.730246,2.53154 l -0.358773,0.73335 -0.03408,3.00627 -0.03408,3.00628 h 4.813274 4.813279 z"
       id="path5882"
       inkscape:connector-curvature="0"
       inkscape:export-xdpi="300"
       inkscape:export-ydpi="300" />
  </g>
</svg>
